<svg id="Layer_1" data-name="Layer 1" xmlns="http://www.w3.org/2000/svg" viewBox="0 0 234.83 35"><defs><style>.cls-1{fill:#5c9ad3;}.cls-2{fill:#fff;}</style></defs><title>logo</title><rect class="cls-1" x="110.83" width="124" height="35"/><path d="M297.23,343v14.82h-1.47v-3.15a6.93,6.93,0,0,1-6.06,3.39,7.62,7.62,0,0,1,0-15.24,6.72,6.72,0,0,1,6.06,3.42V343Zm-13.59,7.41a6,6,0,0,0,6.06,6.21c8.25,0,8.25-12.39,0-12.39A5.93,5.93,0,0,0,283.64,350.42Z" transform="translate(-282.17 -329.48)"/><path d="M323.18,357.83V349a4.58,4.58,0,0,0-4.74-4.86,4.68,4.68,0,0,0-4.77,4.95v8.79H312.2V349a4.76,4.76,0,1,0-9.51,0v8.79h-1.47V343h1.38l0,2.46a5.22,5.22,0,0,1,4.83-2.76,5.45,5.45,0,0,1,5.49,3.66,5.73,5.73,0,0,1,5.49-3.66,6,6,0,0,1,6.21,6.24v8.88Z" transform="translate(-282.17 -329.48)"/><path d="M343,343v14.82h-1.47v-3.15a6.93,6.93,0,0,1-6.06,3.39,7.62,7.62,0,0,1,0-15.24,6.72,6.72,0,0,1,6.06,3.42V343Zm-13.59,7.41a6,6,0,0,0,6.06,6.21c8.25,0,8.25-12.39,0-12.39A5.93,5.93,0,0,0,329.45,350.42Z" transform="translate(-282.17 -329.48)"/><path d="M349.79,338.54V343h5v1.23h-5v9c0,2,.42,3.42,2.73,3.42a5.5,5.5,0,0,0,2.28-.6l.51,1.2a6.48,6.48,0,0,1-2.79.75c-3.15,0-4.17-1.86-4.17-4.77v-9H345.2V343h3.15v-4.32Z" transform="translate(-282.17 -329.48)"/><path d="M377.36,343l.06,2.64a5.21,5.21,0,0,1,4.92-2.79,5.79,5.79,0,0,1,3.18.87l-.66,1.2a4.77,4.77,0,0,0-2.52-.69,4.92,4.92,0,0,0-4.89,4.95v8.64H376V343Z" transform="translate(-282.17 -329.48)"/><path class="cls-1" d="M365.12,358.07a7.24,7.24,0,0,1-7.53-7.59,7.53,7.53,0,1,1,15.06,0A7.24,7.24,0,0,1,365.12,358.07Zm0-1.44a5.86,5.86,0,0,0,6.09-6.15,6.09,6.09,0,1,0-12.18,0A5.86,5.86,0,0,0,365.12,356.63Z" transform="translate(-282.17 -329.48)"/><path class="cls-1" d="M368.49,341.78a.8.8,0,0,1-.55-.21,4.2,4.2,0,0,0-5.65,0,.81.81,0,0,1-1.09,0,.69.69,0,0,1,0-1,5.83,5.83,0,0,1,7.83,0,.69.69,0,0,1,0,1A.8.8,0,0,1,368.49,341.78Z" transform="translate(-282.17 -329.48)"/><path class="cls-1" d="M359,339.46a.77.77,0,0,1-.55-1.32,9.43,9.43,0,0,1,13.36,0,.77.77,0,0,1-1.09,1.09,7.89,7.89,0,0,0-11.17,0A.77.77,0,0,1,359,339.46Z" transform="translate(-282.17 -329.48)"/><path class="cls-1" d="M374,337.14a.77.77,0,0,1-.55-.23,11.75,11.75,0,0,0-16.63,0,.77.77,0,0,1-1.09-1.09,13.29,13.29,0,0,1,18.82,0,.77.77,0,0,1-.55,1.32Z" transform="translate(-282.17 -329.48)"/><path class="cls-2" d="M402.71,338.07v4.47h5v1.23h-5v9c0,2,.42,3.42,2.73,3.42a5.49,5.49,0,0,0,2.28-.6l.51,1.2a6.48,6.48,0,0,1-2.79.75c-3.15,0-4.17-1.86-4.17-4.77v-9h-3.15v-1.23h3.15v-4.32Z" transform="translate(-282.17 -329.48)"/><path class="cls-2" d="M410.3,349.95a7.45,7.45,0,0,1,7.53-7.65c4.17,0,7.89,2.55,7.32,8.34H411.8a5.83,5.83,0,0,0,6,5.49,7,7,0,0,0,5.34-2.25l1,.84a8.15,8.15,0,0,1-6.39,2.85A7.27,7.27,0,0,1,410.3,349.95Zm13.53-.6c0-3.66-2.43-5.7-6-5.7a5.92,5.92,0,0,0-6,5.7Z" transform="translate(-282.17 -329.48)"/><path class="cls-2" d="M430.43,336.36v21H429v-21Z" transform="translate(-282.17 -329.48)"/><path class="cls-2" d="M444.71,345.24a6.33,6.33,0,0,0-4.62-1.56c-2.31,0-4.53.84-4.47,2.73s2.64,2.37,4.5,2.7c2.64.45,6.27.9,6.12,4.35-.09,3.27-3.48,4.14-6.09,4.14s-5.19-1-6.48-3l1.08-1a6.58,6.58,0,0,0,5.43,2.52c1.8,0,4.53-.48,4.62-2.82.06-2.13-2.4-2.55-4.83-2.94-2.88-.48-5.73-1-5.76-4s2.88-4.17,5.88-4.14a7.77,7.77,0,0,1,5.52,2Z" transform="translate(-282.17 -329.48)"/><path class="cls-2" d="M451.46,337.71a1.18,1.18,0,0,1-2.37,0A1.18,1.18,0,0,1,451.46,337.71Zm-1.95,4.77v14.88H451V342.48Z" transform="translate(-282.17 -329.48)"/><path class="cls-2" d="M454.73,342.54h11.16v.57L456.53,356h9.36v1.38H454.25v-.51l9.45-13h-9Z" transform="translate(-282.17 -329.48)"/><path class="cls-2" d="M481.09,355.29a7.58,7.58,0,0,1-5.4,2.22,7.56,7.56,0,1,1,0-15.12,7.7,7.7,0,0,1,5.4,2.22l-1,.93a6.28,6.28,0,0,0-4.44-1.77,6.18,6.18,0,1,0,0,12.36,6.28,6.28,0,0,0,4.41-1.83Z" transform="translate(-282.17 -329.48)"/><path class="cls-2" d="M486,337.71a1.19,1.19,0,0,1-2.37,0A1.19,1.19,0,0,1,486,337.71Zm-1.95,4.77v14.88h1.47V342.48Z" transform="translate(-282.17 -329.48)"/><path class="cls-2" d="M491.24,336.36v21h-1.47v-21Z" transform="translate(-282.17 -329.48)"/><path class="cls-2" d="M497.29,337.71a1.19,1.19,0,0,1-2.37,0A1.19,1.19,0,0,1,497.29,337.71Zm-1.95,4.77v14.88h1.47V342.48Z" transform="translate(-282.17 -329.48)"/><path class="cls-2" d="M502.45,336.36V349l7-6.48h2v.06l-7.5,6.93,8.37,7.74v.09H510.4l-8-7.26v7.26H501v-21Z" transform="translate(-282.17 -329.48)"/></svg>